<?xml version="1.0" encoding="UTF-8"?>
<!-- Generated by jsxcad -->
<!DOCTYPE svg PUBLIC "-//W3C//DTD SVG 1.1 Tiny//EN" "http://www.w3.org/Graphics/SVG/1.1/DTD/svg11-tiny.dtd">
<svg baseProfile="tiny" height="13.716450815301489mm" width="13.857500186333066mm" viewBox="-6.928750093166532 -6.716450815301486 13.857500186333066 13.716450815301489" version="1.1" stroke="black" stroke-width=".1" fill="none" xmlns="http://www.w3.org/2000/svg">
<path fill="#000000" stroke="#000000" d="M2.8284271247461903 2.8284271247461894 L4 0 L3.211503831420649 -1.9035981440634904 L2.8284271247461903 -2.8284271247461894 L2.4492935982947064e-16 -3.999999999999999 L-2.457111684337976 -2.9822310160818106 L-2.8284271247461907 -2.8284271247461894 L-3.9507458973112795 -0.11890992271362484 L-4 4.898587196589412e-16 L-2.82842712474619 2.82842712474619 L-0.5953843487958427 3.753383727904088 L2.4492935982947064e-16 3.999999999999999 L0.6151933336762249 3.74517857770979 L2.5123152967063587 2.9593649311468395 z"/>
<path fill="#000000" stroke="#000000" d="M2.82842712474619 -2.82842712474619 L2.449293598294706e-16 -4 L2.449293598294706e-16 -4 L2.82842712474619 -2.82842712474619 z"/>
<path fill="#000000" stroke="#000000" d="M3.211503831420649 -1.9035981440634906 L4 0 L4 0 L2.8284271247461903 -2.8284271247461894 L2.8284271247461903 -2.8284271247461894 z"/>
<path fill="#000000" stroke="#000000" d="M2.8284271247461903 2.8284271247461894 L4 0 L4 0 L2.8284271247461903 2.8284271247461894 z"/>
<path fill="#000000" stroke="#000000" d="M-4 4.898587196589412e-16 L-2.82842712474619 2.82842712474619 L-2.82842712474619 2.82842712474619 L-4 4.898587196589412e-16 z"/>
<path fill="#000000" stroke="#000000" d="M0.6151933336762248 3.745178577709791 L2.449293598294706e-16 4 L2.449293598294706e-16 4 L2.82842712474619 2.82842712474619 L2.82842712474619 2.82842712474619 L2.5123152967063582 2.9593649311468395 z"/>
<path fill="#000000" stroke="#000000" d="M-0.5953843487958426 3.7533837279040885 L-2.8284271247461894 2.8284271247461903 L-2.8284271247461894 2.8284271247461903 L2.449293598294706e-16 3.9999999999999996 L2.449293598294706e-16 3.9999999999999996 z"/>
<path fill="#000000" stroke="#000000" d="M-3.9507458973112795 -0.11890992271362485 L-2.8284271247461907 -2.8284271247461894 L-2.8284271247461907 -2.8284271247461894 L-3.9999999999999996 4.898587196589412e-16 L-3.9999999999999996 4.898587196589412e-16 z"/>
<path fill="#000000" stroke="#000000" d="M-2.4571116843379754 -2.982231016081811 L2.449293598294706e-16 -3.9999999999999996 L2.449293598294706e-16 -3.9999999999999996 L-2.8284271247461903 -2.82842712474619 L-2.8284271247461903 -2.82842712474619 z"/>
<path fill="#000000" stroke="#000000" d="M2.4492935982947064e-16 -3.9999999999999996 L2.8284271247461903 -2.8284271247461894 L4 0 L2.8284271247461903 2.8284271247461894 L2.4492935982947064e-16 3.9999999999999996 L-2.82842712474619 2.82842712474619 L-4 4.898587196589412e-16 L-2.8284271247461907 -2.8284271247461894 z"/>
<path fill="#000000" stroke="#000000" d="M4.2862637970157356e-16 -6.999999999999999 L4.2862637970157356e-16 -6.999999999999999 L-3.784485722189187 -5.888774729818265 L-3.784485722189187 -5.888774729818265 z"/>
<path fill="#000000" stroke="#000000" d="M3.784485722189183 -5.888774729818268 L3.784485722189183 -5.888774729818268 L4.2862637970157356e-16 -7 L4.2862637970157356e-16 -7 z"/>
<path fill="#000000" stroke="#000000" d="M6.928750093166529 0.9962038679129954 L6.928750093166529 0.9962038679129954 L6.367423967481629 -2.9079050910132045 L6.367423967481629 -2.9079050910132045 z"/>
<path fill="#000000" stroke="#000000" d="M5.290247020479809 4.584025137616994 L5.290247020479809 4.584025137616994 L6.92875009316653 0.9962038679129954 L6.92875009316653 0.9962038679129954 z"/>
<path fill="#000000" stroke="#000000" d="M1.9721278978900083 6.7164508153014815 L1.9721278978900083 6.7164508153014815 L5.290247020479808 4.584025137616995 L5.290247020479808 4.584025137616995 z"/>
<path fill="#000000" stroke="#000000" d="M6.367423967481629 -2.9079050910132045 L6.367423967481629 -2.9079050910132045 L3.7844857221891837 -5.888774729818267 L3.7844857221891837 -5.888774729818267 z"/>
<path fill="#000000" stroke="#000000" d="M-3.784485722189188 -5.888774729818264 L-3.784485722189188 -5.888774729818264 L-6.367423967481632 -2.9079050910131965 L-6.367423967481632 -2.9079050910131965 z"/>
<path fill="#000000" stroke="#000000" d="M-6.367423967481632 -2.9079050910131965 L-6.367423967481632 -2.9079050910131965 L-6.928750093166528 0.9962038679129991 L-6.928750093166528 0.9962038679129991 z"/>
<path fill="#000000" stroke="#000000" d="M-5.290247020479804 4.584025137616999 L-5.290247020479804 4.584025137616999 L-1.9721278978900056 6.716450815301482 L-1.9721278978900056 6.716450815301482 z"/>
<path fill="#000000" stroke="#000000" d="M-6.928750093166529 0.9962038679129991 L-6.928750093166529 0.9962038679129991 L-5.290247020479805 4.584025137616998 L-5.290247020479805 4.584025137616998 z"/>
<path fill="#000000" stroke="#000000" d="M-1.9721278978900059 6.7164508153014815 L-1.9721278978900059 6.7164508153014815 L1.9721278978900083 6.7164508153014815 L1.9721278978900083 6.7164508153014815 z"/>
<path fill="#000000" stroke="#000000" d="M4.286263797015736e-16 -6.999999999999999 L-3.7844857221891877 -5.888774729818264 L-6.367423967481632 -2.9079050910131965 L-6.928750093166529 0.9962038679129992 L-5.290247020479805 4.584025137616998 L-1.972127897890006 6.7164508153014815 L1.9721278978900085 6.716450815301481 L5.290247020479809 4.584025137616994 L6.92875009316653 0.9962038679129954 L6.367423967481629 -2.9079050910132045 L3.7844857221891837 -5.888774729818267 z"/>
<path fill="#000000" stroke="#000000" d="M4.286263797015736e-16 -6.999999999999999 L3.7844857221891837 -5.888774729818267 L6.367423967481629 -2.9079050910132045 L6.92875009316653 0.9962038679129954 L5.290247020479809 4.584025137616994 L1.9721278978900085 6.716450815301481 L-1.972127897890006 6.7164508153014815 L-5.290247020479805 4.584025137616998 L-6.928750093166529 0.9962038679129992 L-6.367423967481632 -2.9079050910131965 L-3.7844857221891877 -5.888774729818264 z"/>
</svg>